<svg width="32" height="32" viewBox="0 0 32 32" fill="none" xmlns="http://www.w3.org/2000/svg">
<path d="M22.9688 7.30338C24.375 8.67056 25.0391 10.6628 24.6875 12.5768C24.8828 12.694 25.0781 12.8503 25.2734 12.9674L26.6016 14.1003C27.1484 14.5299 27.5 15.194 27.5 15.8971C27.5 17.2253 26.4453 18.2799 25.1172 18.2799H21.1719L20.9375 18.3971L18.75 19.6862V19.0612C18.75 16.8346 17.2656 14.8815 15.1172 14.2565L13.9062 13.9049C13.5547 13.8268 13.2422 14.0221 13.125 14.3346C13.0469 14.6862 13.2422 14.9987 13.5547 15.1159L14.7656 15.4674C16.3672 15.8971 17.5 17.3815 17.5 19.0612V20.7409H18.0859H18.75H21.25C21.9141 20.7409 22.5 21.3268 22.5 21.9909C22.5 22.694 21.9141 23.2409 21.25 23.2409H16.7188C16.0938 23.2409 15.5078 23.0065 15.0391 22.6159L9.49219 17.4987C8.94531 16.9909 8.55469 16.4049 8.35938 15.7018C8.00781 15.9362 7.61719 16.0534 7.1875 16.0534C5.97656 16.0534 5 15.0768 5 13.8659C5 12.694 5.97656 11.6784 7.1875 11.6784C7.85156 11.6784 8.47656 11.9909 8.86719 12.4987C9.53125 11.4049 10.6641 10.7409 11.9531 10.7409C13.3203 10.7409 14.6875 11.1315 15.8984 11.7956L20 14.1393C20.0781 13.8659 20.1562 13.5534 20.3125 13.319C18.8672 12.5768 17.7344 11.3268 17.1484 9.80338C16.9531 9.33463 17.1484 8.82681 17.5781 8.59244C17.7734 8.47525 18.0469 8.43619 18.2812 8.47525L18.4375 8.51431C20.2734 8.98306 21.7578 10.2721 22.4609 11.9909C22.5 11.9909 22.5 11.9909 22.5391 11.9909C22.8906 11.9909 23.2031 12.0299 23.5156 12.1081C23.125 10.8971 22.3828 9.84244 21.4453 9.02213C21.4453 8.59244 21.5234 8.12369 21.6406 7.65494L21.6797 7.53775C21.7578 7.30338 21.9531 7.10806 22.1875 7.02994C22.4609 6.95181 22.6953 7.02994 22.8906 7.22525L22.9688 7.30338ZM10.5469 22.2253L11.8359 21.3659L13.7109 23.0846L11.9141 24.2956C11.3672 24.6862 10.5859 24.5299 10.1953 23.944C9.80469 23.3581 9.96094 22.6159 10.5469 22.2253ZM23.75 15.1159C23.75 15.4674 24.0234 15.7409 24.375 15.7409C24.6875 15.7409 25 15.4674 25 15.1159C25 14.8034 24.6875 14.4909 24.375 14.4909C24.0234 14.4909 23.75 14.8034 23.75 15.1159Z" fill="#78D9FC"/>
</svg>
