<svg width="120" height="37" viewBox="0 0 120 37" fill="none" xmlns="http://www.w3.org/2000/svg">
<path d="M65.3908 18.0962L71.8588 28.6555H64.1829L59.8189 21.6419L55.455 28.6555H47.7791L54.2471 18.0962L47.7791 7.49805H55.455L59.8189 14.5505L64.1829 7.49805H71.8588L65.3908 18.0962Z" fill="#949EB7"/>
<path d="M81.0932 7.49805H72.755L66.2869 18.0962L71.8588 27.1748V23.9798H82.8077C87.4054 23.9798 88.7691 20.3561 88.7691 17.2001V14.7064C88.7691 10.6152 87.2885 7.49805 81.0932 7.49805ZM82.7297 16.0311C82.7297 17.278 82.1453 18.7197 80.6257 18.7197H71.8588V12.7192H80.0412C81.9894 12.7192 82.6908 13.5374 82.6908 14.9791V16.0311H82.7297Z" fill="#949EB7"/>
<path d="M47.2336 28.032L36.7913 15.8753L36.8302 28.6555H30.3232V7.49805H36.7913L47.7791 20.2782V8.97867L53.3509 18.0962L47.2336 28.032Z" fill="#949EB7"/>
</svg>
