<svg width="119" height="37" viewBox="0 0 119 37" fill="none" xmlns="http://www.w3.org/2000/svg">
<path d="M25.3777 0.727539C17.7997 0.727539 12.8799 4.88512 12.8799 10.1442C12.8799 11.7205 13.1674 12.9981 13.6978 14.5867H13.8623C13.4733 13.1023 13.2873 11.9993 13.2873 10.8167C13.2873 5.96052 17.5568 1.64974 25.4331 1.64974C35.9937 1.64974 48.6207 7.38673 56.0619 17.0255H56.2249C50.0859 8.168 38.2476 0.727539 25.3777 0.727539ZM58.1697 28.4397C56.6154 32.4824 52.0999 34.6837 45.5474 34.6837C37.1422 34.6837 27.6454 30.1095 22.0599 24.7723C23.0493 23.8688 23.6564 22.6239 23.758 21.2905C23.8596 19.9572 23.448 18.6353 22.6069 17.5932C21.7659 16.5512 20.5583 15.8673 19.2295 15.6802C17.9006 15.4931 16.5501 15.817 15.4523 16.5861C14.3544 17.3552 13.5915 18.5117 13.3184 19.821C13.0453 21.1302 13.2825 22.4939 13.9819 23.6352C14.6813 24.7764 15.7904 25.6097 17.084 25.9657C18.3776 26.3217 19.7587 26.1738 20.9468 25.552C26.5554 30.6456 35.76 35.7407 44.9309 35.7407C51.6495 35.7407 56.5201 33.4812 58.3404 28.4397H58.1697ZM18.4854 24.6482C17.5972 24.6554 16.7347 24.3519 16.048 23.7906C15.3613 23.2293 14.894 22.4458 14.7275 21.5765C14.561 20.7072 14.7058 19.8072 15.1367 19.0334C15.5676 18.2595 16.2573 17.6608 17.0856 17.3415C17.914 17.0222 18.8285 17.0026 19.6699 17.286C20.5113 17.5695 21.2263 18.1381 21.6902 18.8927C22.1541 19.6474 22.3377 20.5403 22.2089 21.4159C22.0801 22.2916 21.647 23.0944 20.9853 23.6846C20.4604 23.123 19.9672 22.5328 19.5078 21.9168H17.5506C18.2314 22.7989 18.9699 23.6351 19.7615 24.42C19.3529 24.5702 18.9209 24.6475 18.4854 24.6482ZM54.2508 24.3418C54.0971 24.1458 53.9956 23.7766 53.9956 23.291V19.4719H52.4397V23.2343C52.4397 24.3296 52.7088 24.9898 53.293 25.4954C53.8442 25.9233 54.5229 26.1557 55.2217 26.1557C55.9205 26.1557 56.5992 25.9233 57.1504 25.4954C57.7346 24.9898 58.0037 24.3296 58.0037 23.2343V19.4719H56.4493V23.2879C56.4493 23.7735 56.354 24.1427 56.1941 24.3388C56.0717 24.4748 55.9219 24.5835 55.7545 24.658C55.5871 24.7324 55.4058 24.7709 55.2225 24.7709C55.0391 24.7709 54.8579 24.7324 54.6904 24.658C54.523 24.5835 54.3732 24.4748 54.2508 24.3388V24.3418ZM66.7348 19.3111C65.983 19.3111 65.2819 19.694 64.79 20.4631C64.6309 20.1168 64.3747 19.8238 64.0523 19.6193C63.7298 19.4149 63.3549 19.3079 62.9727 19.3111C62.6962 19.3179 62.4243 19.3833 62.1751 19.5029C61.9259 19.6226 61.7051 19.7937 61.5275 20.005C61.4265 20.1217 61.3454 20.2542 61.2877 20.3972L61.1847 20.3558C61.2488 20.0661 61.2798 19.7701 61.2769 19.4734H59.804V25.9963H61.3599V22.2784C61.3599 21.1156 61.9749 20.6944 62.5591 20.6944C63.1434 20.6944 63.5677 21.0973 63.5677 22.1757V25.9932H65.122V22.2784C65.122 21.1156 65.737 20.6944 66.3243 20.6944C66.8839 20.6944 67.3329 21.0973 67.3329 22.1757V25.9932H68.8857V22.0195C68.8857 20.342 67.9878 19.308 66.7348 19.308V19.3111ZM27.0858 24.3388C26.9244 24.1427 26.8306 23.7735 26.8306 23.2879V19.4719H25.2747V23.2343C25.2747 24.3296 25.5453 24.9898 26.1295 25.4954C26.6675 25.9476 27.3557 26.1831 28.059 26.1556C28.7618 26.1828 29.4494 25.9473 29.987 25.4954C30.5712 24.9898 30.8418 24.3296 30.8418 23.2343V19.4719H29.2859V23.2879C29.2859 23.7735 29.1906 24.1427 29.0307 24.3388C28.9081 24.4748 28.7582 24.5836 28.5906 24.6581C28.4231 24.7325 28.2417 24.771 28.0582 24.771C27.8748 24.771 27.6934 24.7325 27.5258 24.6581C27.3583 24.5836 27.2084 24.4748 27.0858 24.3388ZM41.9375 20.0602C41.8491 20.1584 41.7788 20.2715 41.7299 20.3941L41.6269 20.3528C41.6911 20.0631 41.722 19.767 41.7192 19.4704H40.2463V25.9932H41.8006V22.3596C41.8006 21.1968 42.5017 20.6944 43.0844 20.6944C43.2622 20.6836 43.4398 20.7175 43.601 20.7929C43.7622 20.8684 43.9018 20.9831 44.0069 21.1264C44.1606 21.3209 44.2621 21.6916 44.2621 22.1757V25.9932H45.8164V22.2309C45.8164 21.1356 45.6627 20.4048 45.0677 19.8717C44.6309 19.4839 44.0593 19.2816 43.4749 19.308C43.1787 19.312 42.8871 19.3816 42.6212 19.5117C42.3553 19.6418 42.1218 19.8291 41.9375 20.0602ZM73.4288 15.5533C71.5178 15.5533 70.3463 16.7788 70.3463 18.2571C70.3463 19.3938 71.0473 20.4018 72.451 21.0008L73.4411 21.4113C74.4235 21.8341 74.9017 22.4959 74.9017 23.2297C74.9017 24.1212 74.1453 24.7034 73.3027 24.7034C72.3034 24.7034 71.5378 24.1166 71.2257 23.1163L69.8973 23.5897C70.0966 24.3227 70.5318 24.9702 71.1362 25.4329C71.7406 25.8956 72.4806 26.1479 73.2428 26.151C74.9862 26.151 76.4622 24.9469 76.4622 23.1286C76.4622 21.6242 75.4336 20.6009 74.0576 20.0402L73.0352 19.6236C72.2911 19.3172 71.9206 18.7657 71.9206 18.2663C71.9206 17.5632 72.5356 17.0025 73.4134 17.0025C74.0407 17.0025 74.5665 17.3548 74.9755 17.9798L76.1747 17.1649C75.5551 16.0956 74.5804 15.5533 73.4288 15.5533ZM105.126 22.9064C105.126 20.8522 103.939 19.2957 102.036 19.2957C100.068 19.2957 98.9072 20.7985 98.9072 22.7241C98.9072 24.7937 100.363 26.1449 102.116 26.1449C103.364 26.1449 104.208 25.6317 104.69 25.0343L103.603 24.1902C103.284 24.6023 102.852 24.8029 102.171 24.8029C101.754 24.8003 101.354 24.6383 101.053 24.3505C100.752 24.0627 100.574 23.6709 100.554 23.2557H105.126V22.9064ZM100.574 22.1144C100.652 21.3071 101.157 20.6469 102.07 20.6469C102.868 20.6469 103.453 21.1846 103.581 22.1144H100.574ZM51.0499 20.7664V19.4612H49.4125V17.0101H47.8597V19.4612H47.0418V20.7664H47.8597V24.1366C47.8597 25.6853 48.7007 26.1525 49.9229 26.1525C50.3136 26.148 50.6984 26.0575 51.0499 25.8875V24.8244C50.8142 24.9009 50.5673 24.9371 50.3196 24.9316C49.7169 24.9316 49.4125 24.6865 49.4125 23.9328V20.7756L51.0499 20.7664ZM33.789 22.7333C33.789 21.661 34.2733 20.6944 35.3849 20.6944C36.4965 20.6944 36.9792 21.6641 36.9792 22.7333C36.9792 23.8026 36.4949 24.7708 35.3849 24.7708C34.2749 24.7708 33.789 23.8011 33.789 22.7333ZM38.4521 19.4704H36.9808C36.9811 19.7673 37.0146 20.0632 37.0807 20.3528L36.9592 20.3911C36.8503 20.1531 36.682 19.9469 36.4703 19.7921C36.0598 19.4757 35.5549 19.3053 35.0359 19.308C33.4339 19.308 32.2347 20.6867 32.2347 22.7333C32.2347 24.78 33.4339 26.1556 35.0359 26.1556C35.555 26.159 36.0602 25.9885 36.4703 25.6715C36.6821 25.5175 36.8505 25.3118 36.9592 25.0741L37.0807 25.1124C37.0146 25.4014 36.9811 25.6968 36.9808 25.9932H38.4521V19.4704ZM94.5332 24.7708C93.4217 24.7708 92.9374 23.8011 92.9374 22.7333C92.9374 21.6656 93.4217 20.6944 94.5332 20.6944C95.6448 20.6944 96.1291 21.6641 96.1291 22.7333C96.1291 23.8026 95.6402 24.7708 94.5302 24.7708H94.5332ZM92.9374 25.9963C92.9377 25.6997 92.9031 25.404 92.8344 25.1154L92.9574 25.0771C93.067 25.3147 93.2358 25.5204 93.4478 25.6746C93.858 25.9916 94.3631 26.1621 94.8822 26.1587C96.4827 26.1587 97.6834 24.78 97.6834 22.7364C97.6834 20.6928 96.4827 19.3111 94.8822 19.3111C94.363 19.3082 93.8578 19.4792 93.4478 19.7967C93.2358 19.9508 93.067 20.1565 92.9574 20.3941L92.8344 20.3558C92.903 20.0672 92.9376 19.7716 92.9374 19.475H91.4645V29.6621H92.9374V25.9963ZM80.7624 20.653C80.9951 20.6597 81.224 20.7132 81.4354 20.8103C81.6468 20.9075 81.8362 21.0462 81.9923 21.2183L82.7103 20.0847C82.4618 19.834 82.1649 19.6363 81.8375 19.5033C81.5101 19.3703 81.159 19.3049 80.8055 19.3111C78.7776 19.3111 77.4738 20.9119 77.4738 22.7364C77.4738 24.5609 78.7776 26.1587 80.8055 26.1587C81.1584 26.1658 81.5092 26.1016 81.8366 25.97C82.164 25.8383 82.4612 25.642 82.7103 25.3927L81.9923 24.2591C81.8361 24.4309 81.6466 24.5695 81.4353 24.6664C81.2239 24.7632 80.995 24.8165 80.7624 24.8229C79.7615 24.8229 79.0066 24.0247 79.0066 22.7425C79.0066 21.4603 79.7585 20.6499 80.7593 20.6499L80.7624 20.653ZM84.9996 22.7364C84.9996 21.6641 85.4854 20.6974 86.597 20.6974C87.7085 20.6974 88.1928 21.6671 88.1928 22.7364C88.1928 23.8057 87.707 24.7738 86.597 24.7738C85.4869 24.7738 84.9965 23.8011 84.9965 22.7333L84.9996 22.7364ZM89.6657 19.4734H88.1928C88.1928 19.7705 88.2269 20.0665 88.2943 20.3558L88.1713 20.3941C88.0621 20.1567 87.8945 19.9507 87.6839 19.7951C87.2732 19.4792 86.7684 19.3088 86.2495 19.3111C84.6444 19.3111 83.4468 20.6898 83.4468 22.7364C83.4468 24.783 84.646 26.1587 86.2495 26.1587C86.7685 26.1616 87.2736 25.9912 87.6839 25.6746C87.8944 25.5196 88.0621 25.3141 88.1713 25.0771L88.2943 25.1154C88.2269 25.4042 88.1928 25.6998 88.1928 25.9963H89.6657V19.4704V19.4734Z" fill="#949EB7"/>
</svg>
