<svg width="119" height="37" viewBox="0 0 119 37" fill="none" xmlns="http://www.w3.org/2000/svg">
<path d="M70.2846 12.7131V24.939H73.7348V12.7131H70.2846ZM43.1391 12.6924V24.9286H46.6203V15.4277L49.3349 15.438C50.2259 15.438 50.8476 15.6556 51.2724 16.1115C51.8215 16.6917 52.0391 17.6346 52.0391 19.3441V24.9286H55.4167V18.1733C55.4167 13.3451 52.3395 12.6924 49.3349 12.6924H43.1391ZM75.8484 12.7131V24.939H81.4433C84.4272 24.939 85.4011 24.4417 86.4476 23.333C87.1936 22.556 87.6702 20.8361 87.6702 18.9607C87.6702 17.2408 87.2661 15.7074 86.5512 14.7542C85.2872 13.0447 83.4429 12.7131 80.6869 12.7131H75.8484ZM79.2675 15.3655H80.7491C82.9042 15.3655 84.2925 16.3291 84.2925 18.8364C84.2925 21.3438 82.9042 22.3177 80.7491 22.3177H79.2675V15.3655ZM65.3114 12.7131L62.431 22.4006L59.675 12.7131H55.9451L59.8823 24.939H64.8555L68.8341 12.7131H65.3114ZM89.2865 24.939H92.7366V12.7131H89.2865V24.939ZM98.9635 12.7131L94.1457 24.9286H97.5441L98.3108 22.7632H104.009L104.735 24.9183H108.433L103.574 12.7131H98.9635ZM101.201 14.9407L103.294 20.6599H99.0464L101.201 14.9407Z" fill="#949EB7"/>
<path d="M20.8735 14.7439V13.0654C21.0393 13.055 21.2051 13.0447 21.3708 13.0447C25.9711 12.8996 28.9861 17.0025 28.9861 17.0025C28.9861 17.0025 25.7328 21.5199 22.2411 21.5199C21.7749 21.5199 21.319 21.4474 20.8839 21.3023V16.2048C22.6763 16.4223 23.0389 17.2098 24.1061 19.0022L26.4995 16.9922C26.4995 16.9922 24.7485 14.7024 21.806 14.7024C21.4952 14.6921 21.1843 14.7128 20.8735 14.7439ZM20.8735 9.19043V11.6978L21.3708 11.6667C27.7635 11.4491 31.9389 16.9093 31.9389 16.9093C31.9389 16.9093 27.1522 22.7321 22.1686 22.7321C21.7335 22.7321 21.3087 22.6907 20.8839 22.6181V24.1723C21.2361 24.2137 21.5988 24.2448 21.951 24.2448C26.5927 24.2448 29.9497 21.8722 33.203 19.0747C33.7417 19.5099 35.9486 20.5563 36.4045 21.0122C33.3169 23.6024 26.1161 25.685 22.0339 25.685C21.6402 25.685 21.2672 25.6642 20.8942 25.6228V27.8089H38.5285V9.19043H20.8735ZM20.8735 21.3023V22.6285C16.5841 21.8618 15.3926 17.3963 15.3926 17.3963C15.3926 17.3963 17.4544 15.1169 20.8735 14.7439V16.1944H20.8631C19.0707 15.9768 17.6616 17.6553 17.6616 17.6553C17.6616 17.6553 18.4594 20.4838 20.8735 21.3023ZM13.2583 17.2098C13.2583 17.2098 15.7967 13.4591 20.8839 13.0654V11.6978C15.2475 12.1536 10.3779 16.9197 10.3779 16.9197C10.3779 16.9197 13.1339 24.8975 20.8735 25.6228V24.1723C15.1957 23.4677 13.2583 17.2098 13.2583 17.2098Z" fill="#949EB7"/>
</svg>
